PathFileType	4	(X/Y/Z)	\\147.46.242.158\로컬 디스크 (e)\MOCAP Data\Iguana Capture\iguana\Project 2\Capture day 7\Session 2\Take13.trc
DataRate	CameraRate	NumFrames	NumMarkers	Units	OrigDataRate	OrigDataStartFrame	OrigNumFrames
120.0	120.0	8	23	mm	120.0	82	7542
Frame#	Time	ana:head1			ana:head2			ana:bone1			ana:bone2			ana:bone3			ana:tail1			ana:tail2			ana:tail3			ana:tail4			ana:Rforefoot1			ana:Rforefoot2			ana:Rforefoot3			ana:Lforefoot1			ana:Lforefoot2			ana:Lforefoot3			ana:RhindLeg1			ana:RhindLeg2			ana:RhindLeg3			ana:RhindLeg4			ana:LhindLeg1			ana:LhindLeg2			ana:LhindLeg3			ana:LhindLeg4			
		X1	Y1	Z1	X2	Y2	Z2	X3	Y3	Z3	X4	Y4	Z4	X5	Y5	Z5	X6	Y6	Z6	X7	Y7	Z7	X8	Y8	Z8	X9	Y9	Z9	X10	Y10	Z10	X11	Y11	Z11	X12	Y12	Z12	X13	Y13	Z13	X14	Y14	Z14	X15	Y15	Z15	X16	Y16	Z16	X17	Y17	Z17	X18	Y18	Z18	X19	Y19	Z19	X20	Y20	Z20	X21	Y21	Z21	X22	Y22	Z22	X23	Y23	Z23	

5461	45.500	530.01129	158.43050	44.43087	519.63080	161.12149	45.87328	500.36313	172.36578	39.59023	478.52142	190.76401	38.18909	450.35126	207.91383	32.87261	421.05307	221.83861	27.00379	397.77206	248.42494	16.64445	379.96201	285.24088	8.32724	364.18359	323.85535	3.97115	490.46365	158.71942	24.35061	474.72516	159.26782	21.00497	468.21100	159.49434	6.97817	510.55847	176.43011	22.55133	518.59308	183.28560	14.94307	530.68896	176.60411	2.46152	446.29922	197.70866	28.34526	450.65103	178.20828	27.03100	438.38248	170.81502	10.68890	447.58737	164.46992	9.33466	449.26779	216.24423	24.31649	444.85239	232.78284	17.39172	425.62674	241.50800	12.18583	434.20425	242.13695	4.76142	
5462	45.508	532.25061	157.73967	44.04043	521.88153	160.64561	45.41177	502.44620	171.45705	39.29377	480.45120	189.60405	38.09908	452.22604	206.59911	32.96978	422.57089	220.14429	27.10289	398.61984	246.16606	16.91810	380.33447	282.71973	8.52927	364.61597	321.37433	3.97817	492.53873	158.04111	23.80354	476.78464	158.49265	20.73096	468.97885	158.94485	7.38416	512.37750	176.00024	22.37016	519.86975	183.60381	14.90696	530.93976	176.72993	1.83062	448.13364	196.18141	28.11428	452.61905	176.79370	25.93394	441.28180	169.52763	8.75533	450.57697	163.35150	7.22472	450.98523	215.00357	24.50432	446.16190	231.50160	17.96655	426.80234	240.57899	13.09280	434.94037	242.38551	5.47549	
5463	45.517	534.50940	157.03761	43.75988	524.15375	160.09230	45.04539	504.54758	170.42029	39.15632	482.32166	188.25287	38.05533	453.99640	205.15419	32.95846	424.19217	218.47055	27.02317	399.53711	243.94173	16.92351	380.72189	280.16714	8.56261	365.03217	318.88831	3.97870	494.70520	157.15315	23.37034	478.97098	157.52676	20.44363	469.82626	158.42545	7.70443	514.18372	175.55261	22.34128	521.02081	183.92369	15.19026	531.11914	176.87498	1.57988	449.80295	194.55267	27.76521	453.90082	175.27341	24.64736	443.14874	168.97345	6.75436	452.21231	162.90347	5.25341	452.72534	213.67508	24.65858	447.59256	230.10037	18.50499	428.21689	239.63991	13.94794	435.79623	242.73532	6.32259	
5464	45.525	536.76031	156.34227	43.60363	526.38672	159.43629	44.86327	506.57697	169.34036	39.10305	484.10379	186.75063	38.05794	455.66437	203.60670	32.92173	425.84631	216.89894	26.76889	400.56119	241.80603	16.65269	381.12695	277.65198	8.35594	365.42776	316.44894	3.94043	496.99423	156.00322	23.15577	481.24158	156.51521	20.22655	470.66476	158.00986	7.95439	515.98578	175.06465	22.43217	522.08832	184.11287	15.62047	531.26343	176.94191	1.47858	451.34528	192.87402	27.34118	454.59012	173.67271	23.32694	443.99002	169.01457	4.93580	452.76324	162.86740	3.63960	454.45651	212.17378	24.72469	449.17987	228.56725	18.98677	429.90753	238.71156	14.76968	436.69656	242.98337	7.11964	
5465	45.533	538.97668	155.63438	43.55897	528.60419	158.77670	44.80678	508.52295	168.22884	39.07471	485.80539	185.14218	38.07491	457.18161	202.01353	32.81500	427.55466	215.41373	26.35705	401.69250	239.78333	16.10031	381.61316	275.22690	7.95046	365.85434	314.06516	3.92753	499.38345	154.76515	23.12561	483.55142	155.36908	20.20461	471.44138	157.64702	8.19212	517.69031	174.53828	22.54211	522.98584	184.17355	16.04222	531.36578	177.01614	1.41593	452.72427	191.15364	26.88983	454.84689	172.04738	22.09555	444.12546	169.37465	3.45859	452.58078	163.02240	2.49765	456.31805	210.52174	24.83582	450.92175	226.97836	19.40451	431.85825	237.83440	15.59819	437.61331	243.05061	7.80067	
5466	45.542	541.12701	154.93349	43.58283	530.74493	158.06483	44.81989	510.43362	167.13123	39.10225	487.39590	183.48431	38.08808	458.59653	200.38417	32.62715	429.23959	213.99657	25.81747	402.93738	237.91840	15.42154	382.20316	272.92770	7.41097	366.32962	311.78470	3.91735	501.84842	153.46585	23.27573	485.86038	154.08177	20.44240	472.52151	157.03464	8.54264	519.31665	173.98264	22.67715	523.70203	184.13164	16.37910	531.45331	177.09683	1.39175	453.96722	189.49171	26.43670	454.88287	170.44896	21.04684	443.90823	169.77563	2.40500	452.20050	163.12567	1.88176	458.17410	208.78325	24.90560	452.79135	225.36116	19.72851	434.00797	236.98990	16.41056	438.43039	242.71918	8.12416	
5467	45.550	543.20392	154.24026	43.64275	532.83722	157.41064	44.83172	512.30762	166.05263	39.15756	488.90463	181.78717	38.10327	459.95395	198.74200	32.42852	430.92700	212.68489	25.31861	404.27585	236.21356	14.75326	382.89447	270.75165	6.88019	366.86703	309.63892	3.92567	504.32889	152.33546	23.41601	488.14639	152.67569	20.91384	474.02319	156.37213	8.81060	520.83228	173.41293	22.78785	524.16974	183.97670	16.52099	531.49432	177.17758	1.35171	455.11649	187.88954	26.05483	454.86929	168.95456	20.23052	443.66916	170.03671	1.78562	451.89905	163.05544	1.68065	459.97897	207.05322	24.95057	454.77206	223.78001	20.00371	436.29071	236.12073	17.12806	439.22278	241.98137	8.21918	
5468	45.558	545.22107	153.56029	43.73262	534.89246	156.87114	44.80439	514.16101	164.98105	39.24337	490.33734	180.08667	38.11956	461.33099	197.07005	32.25327	432.61884	211.45439	24.96677	405.68652	234.68733	14.26746	383.67694	268.73907	6.46132	367.46805	307.61044	3.93590	506.79251	151.40788	23.49463	490.39584	151.23637	21.55734	476.11819	155.43959	8.96711	522.24066	172.81627	22.86709	524.58044	183.74939	16.68101	531.51123	177.24028	1.30374	456.22693	186.35712	25.75599	454.80612	167.66254	19.61470	443.60287	170.09081	1.46385	451.83118	162.92839	1.64129	461.71841	205.39334	25.02677	456.86365	222.25739	20.27092	438.63403	235.24426	17.74205	440.13638	241.00888	8.24759	
